<?xml version="1.0" standalone="no"?>
<!DOCTYPE svg PUBLIC "-//W3C//DTD SVG 20010904//EN"
 "http://www.w3.org/TR/2001/REC-SVG-20010904/DTD/svg10.dtd">
<svg version="1.0" xmlns="http://www.w3.org/2000/svg"
 width="512.000000pt" height="512.000000pt" viewBox="0 0 512.000000 512.000000"
 preserveAspectRatio="xMidYMid meet">
<metadata>
Created by potrace 1.14, written by Peter Selinger 2001-2017
</metadata>
<g transform="translate(0.000000,512.000000) scale(0.100000,-0.100000)"
fill="#000000" stroke="none">
<path d="M836 4978 c-4 -35 -9 -76 -11 -93 -17 -122 -33 -253 -40 -325 -3 -30
-7 -66 -10 -79 -2 -13 -7 -47 -10 -75 -3 -28 -7 -67 -10 -86 -3 -19 -7 -57
-10 -85 -3 -27 -7 -59 -9 -70 -2 -11 -7 -49 -11 -85 -4 -36 -8 -72 -10 -80 -2
-8 -6 -44 -10 -80 -3 -36 -8 -72 -10 -80 -2 -8 -7 -49 -10 -90 -4 -41 -8 -77
-10 -80 -1 -3 -6 -32 -9 -65 -9 -84 -17 -146 -21 -175 -2 -14 -7 -52 -11 -85
-3 -33 -8 -67 -9 -75 -2 -8 -6 -44 -9 -80 -4 -36 -9 -76 -11 -90 -2 -14 -7
-45 -10 -70 -3 -25 -7 -61 -10 -80 -3 -19 -7 -53 -10 -75 -13 -113 -36 -294
-40 -325 -3 -19 -7 -60 -10 -90 -3 -30 -7 -64 -9 -75 -3 -18 -7 -50 -21 -165
-3 -19 -7 -54 -10 -77 -3 -24 -7 -62 -10 -85 -3 -24 -8 -61 -11 -83 -2 -22 -7
-56 -9 -75 -8 -72 -17 -145 -20 -160 -2 -8 -6 -44 -10 -80 -4 -36 -8 -72 -10
-80 -1 -8 -6 -46 -10 -83 -3 -37 -8 -76 -10 -86 -2 -10 -8 -63 -15 -117 -6
-55 -13 -110 -15 -124 -2 -14 -7 -47 -10 -75 -3 -27 -10 -86 -15 -130 -16
-118 -19 -145 -25 -200 -3 -27 -10 -81 -15 -120 -6 -38 -12 -92 -15 -120 -3
-27 -7 -59 -9 -70 -2 -11 -7 -49 -11 -85 -3 -36 -8 -76 -10 -90 -3 -14 -7 -47
-9 -75 -3 -27 -8 -67 -11 -88 l-6 -37 45 0 c51 0 51 0 61 105 3 39 8 79 11 90
2 11 6 45 9 75 2 30 7 66 9 80 3 14 7 52 11 85 3 33 10 89 15 124 5 35 8 67 8
70 -1 3 2 26 5 51 9 60 36 286 52 435 3 28 8 61 10 75 3 14 7 50 10 80 3 30 7
71 10 90 3 19 7 54 10 78 3 23 7 59 10 80 9 71 15 127 20 167 9 75 17 140 20
165 2 14 6 50 10 80 5 48 15 133 30 250 3 19 9 76 15 125 6 50 13 108 16 130
2 22 7 56 9 75 3 19 7 58 9 85 3 28 7 66 10 85 13 94 18 138 22 170 2 19 13
109 24 200 11 91 23 188 26 215 3 28 7 61 9 75 6 43 32 259 40 340 3 30 8 62
10 70 2 8 7 46 10 85 4 38 8 71 9 73 2 1 38 -102 80 -230 42 -128 117 -354
166 -503 50 -148 93 -279 95 -290 3 -11 25 -78 49 -150 24 -71 133 -400 241
-730 236 -717 326 -991 487 -1475 66 -201 121 -369 122 -375 1 -5 13 -43 26
-83 l24 -72 224 2 224 3 13 40 c7 22 52 162 100 310 171 533 267 832 310 965
24 74 109 340 190 590 80 250 162 502 180 560 38 117 101 314 230 715 48 149
101 313 118 365 17 52 32 97 32 100 4 20 99 309 101 307 1 -1 5 -27 8 -57 4
-30 9 -66 11 -80 4 -23 14 -100 20 -160 2 -14 6 -46 9 -72 3 -27 8 -69 11 -95
6 -52 14 -114 20 -153 2 -14 7 -54 10 -90 3 -36 8 -72 10 -80 2 -8 6 -38 9
-67 10 -92 40 -340 51 -413 2 -14 6 -52 10 -85 4 -33 9 -76 11 -95 9 -67 14
-105 19 -155 3 -27 8 -66 10 -85 3 -19 7 -55 10 -80 5 -43 12 -94 20 -150 2
-14 6 -54 10 -90 4 -36 8 -77 11 -91 4 -27 9 -67 20 -164 3 -27 7 -61 9 -75
10 -72 15 -110 20 -155 3 -27 8 -66 10 -85 3 -19 7 -57 10 -85 3 -27 8 -61 10
-75 2 -14 6 -50 10 -80 3 -30 15 -125 25 -210 11 -85 22 -182 26 -215 3 -33 7
-67 9 -75 3 -15 12 -87 19 -150 7 -52 16 -131 21 -165 2 -16 6 -51 9 -77 6
-45 15 -118 21 -163 1 -11 3 -35 4 -52 l1 -33 296 0 296 0 -6 27 c-3 16 -8 57
-12 93 -3 36 -8 73 -9 82 -2 9 -6 43 -10 75 -3 32 -7 69 -10 83 -2 14 -7 48
-10 75 -6 57 -14 126 -20 170 -2 17 -6 50 -9 75 -3 25 -14 115 -25 200 -11 85
-22 182 -26 215 -3 33 -8 67 -10 75 -2 8 -6 40 -10 70 -7 68 -25 216 -30 250
-2 14 -7 54 -10 90 -4 35 -8 67 -10 70 -1 3 -6 38 -9 79 -4 41 -9 77 -10 80
-2 3 -6 38 -10 76 -4 39 -8 81 -11 95 -2 14 -7 46 -10 73 -3 26 -7 68 -10 95
-3 26 -8 58 -10 71 -2 14 -7 54 -11 90 -3 36 -8 74 -10 84 -2 11 -6 45 -9 76
-4 31 -8 67 -10 81 -2 14 -7 48 -10 75 -4 28 -8 61 -10 75 -2 14 -7 57 -11 95
-3 39 -8 79 -10 90 -3 17 -32 245 -49 390 -3 22 -10 74 -15 115 -11 83 -15
114 -30 245 -5 50 -12 101 -14 115 -4 23 -13 100 -22 179 -2 19 -5 48 -8 65
-3 17 -8 58 -11 91 -3 33 -8 71 -10 85 -3 14 -7 48 -11 75 -3 28 -7 60 -9 73
-2 13 -7 53 -11 90 -3 37 -8 75 -10 86 -2 10 -6 44 -9 75 -4 31 -8 67 -10 81
-2 14 -7 51 -10 83 -4 32 -8 66 -10 75 -1 9 -6 47 -10 85 l-7 67 -117 0 -117
0 -46 -142 c-56 -172 -306 -947 -508 -1578 -45 -140 -102 -316 -126 -390 -24
-75 -44 -142 -44 -149 0 -30 -9 -3 -15 44 -11 90 -14 109 -29 167 -43 162
-151 314 -295 413 -122 84 -314 175 -581 275 -312 116 -435 181 -535 283 -97
99 -138 205 -136 352 2 241 153 415 421 485 143 37 375 39 590 4 60 -10 221
-54 310 -84 79 -27 86 -28 98 -13 10 14 10 18 0 24 -30 16 -329 92 -405 103
-85 13 -121 18 -143 22 -51 10 -387 13 -448 4 -107 -17 -125 -21 -198 -45
-158 -53 -291 -164 -362 -303 -44 -86 -59 -137 -70 -232 -26 -229 37 -429 183
-575 124 -125 285 -218 640 -370 219 -93 383 -173 464 -225 150 -97 246 -226
278 -374 9 -41 9 -212 1 -256 -40 -203 -187 -348 -441 -434 -115 -40 -231 -55
-392 -51 -181 4 -187 6 -203 58 -36 115 -176 547 -189 582 -8 22 -17 51 -20
64 -2 14 -6 27 -8 30 -1 3 -51 155 -110 336 -58 182 -154 476 -212 655 -57
179 -129 399 -158 490 -30 91 -97 300 -150 465 -53 165 -102 315 -108 333
l-11 32 -117 0 -116 0 -7 -62z m2264 -2840 c-15 -46 -60 -184 -100 -308 -39
-124 -77 -243 -85 -265 -7 -22 -50 -152 -94 -290 -207 -649 -254 -791 -261
-798 -4 -5 -12 6 -18 25 -27 89 -268 839 -279 868 -3 8 -7 20 -8 26 -2 5 -26
82 -55 170 -28 87 -56 173 -61 189 -5 17 -22 70 -39 118 -16 49 -30 90 -30 92
0 1 19 0 43 -3 63 -9 382 -8 455 1 218 26 377 92 502 206 30 28 56 51 57 51 1
0 -11 -37 -27 -82z"/>
</g>
</svg>
