<?xml version="1.0" standalone="no"?>
<!DOCTYPE svg PUBLIC "-//W3C//DTD SVG 20010904//EN"
 "http://www.w3.org/TR/2001/REC-SVG-20010904/DTD/svg10.dtd">
<svg version="1.0" xmlns="http://www.w3.org/2000/svg"
 width="256.000000pt" height="256.000000pt" viewBox="0 0 256.000000 256.000000"
 preserveAspectRatio="xMidYMid meet">
<metadata>
Created by potrace 1.14, written by Peter Selinger 2001-2017
</metadata>
<g transform="translate(0.000000,256.000000) scale(0.100000,-0.100000)"
fill="#000000" stroke="none">
<path d="M886 2362 c-34 -3 -38 -6 -33 -28 3 -18 1 -22 -8 -14 -8 7 -12 5 -12
-5 0 -8 4 -15 9 -15 5 0 7 -4 3 -10 -3 -5 -13 -7 -23 -4 -14 5 -14 4 -3 -4 8
-6 21 -8 30 -5 11 4 10 0 -4 -11 -11 -10 -15 -15 -9 -12 6 3 11 -1 11 -9 0 -8
-4 -12 -9 -9 -4 3 -8 0 -8 -5 0 -6 4 -11 9 -11 10 0 9 -19 -1 -36 -8 -12 -37
-12 -57 1 -9 5 -12 4 -8 -2 4 -6 0 -13 -8 -17 -9 -3 -12 -12 -8 -22 3 -9 0
-20 -8 -25 -12 -7 -12 -9 0 -9 11 0 9 -4 -5 -14 -18 -14 -18 -15 -1 -21 16 -7
16 -8 1 -19 -15 -11 -15 -15 -1 -43 9 -17 15 -32 13 -34 -2 -2 -6 -21 -9 -42
-4 -26 -2 -35 5 -31 6 4 8 3 5 -2 -3 -6 -23 -11 -43 -12 -38 -3 -58 -18 -47
-35 3 -5 -5 -6 -18 -3 -20 6 -21 5 -7 -4 10 -6 15 -17 11 -27 -4 -10 -2 -14 4
-10 5 3 10 0 10 -8 0 -17 -8 -19 -22 -7 -6 4 -7 3 -3 -2 12 -15 9 -28 -3 -20
-8 4 -8 0 0 -15 7 -12 9 -27 5 -33 -4 -7 -3 -8 5 -4 6 4 9 16 6 26 -3 10 -2
21 3 24 10 6 8 -41 -3 -68 -5 -12 -5 -17 2 -13 5 3 10 0 10 -8 0 -17 -8 -19
-25 -5 -9 7 -9 7 -2 -2 13 -16 13 -31 -1 -22 -8 4 -8 0 0 -15 7 -12 9 -27 5
-33 -4 -7 -3 -8 5 -4 6 4 9 16 6 26 -3 10 -2 21 3 24 10 6 8 -41 -3 -68 -5
-12 -5 -17 2 -13 5 3 10 0 10 -8 0 -18 -8 -19 -27 -2 -13 10 -13 10 -2 -3 15
-17 16 -34 1 -24 -8 4 -8 0 0 -15 7 -12 9 -27 5 -33 -4 -7 -3 -8 5 -4 6 4 9
16 6 26 -3 10 -2 21 3 24 10 6 8 -41 -3 -68 -5 -12 -5 -17 2 -13 5 3 10 0 10
-8 0 -18 -8 -19 -28 -2 -12 10 -12 10 -1 -3 13 -16 17 -34 4 -26 -4 2 -8 -4
-8 -14 0 -10 4 -16 8 -14 17 10 7 -16 -9 -26 -16 -10 -16 -11 -1 -6 9 2 19 -2
22 -10 4 -10 -3 -14 -28 -14 -53 0 -64 -7 -58 -38 5 -25 4 -26 -14 -12 -18 14
-18 14 -4 -4 17 -21 22 -134 7 -153 -6 -8 -6 -13 0 -13 19 0 9 -81 -12 -97
-19 -15 -19 -15 3 -8 13 4 22 2 22 -4 0 -6 -6 -11 -14 -11 -21 0 -26 -23 -10
-45 8 -10 14 -14 14 -8 0 7 -5 15 -10 18 -11 7 -4 25 9 25 15 0 5 -100 -12
-117 -9 -10 -17 -13 -17 -7 0 5 -9 10 -20 10 -23 0 -37 -35 -35 -88 l1 -38
-25 17 c-26 16 -26 16 -8 -4 9 -11 14 -23 10 -28 -5 -4 -3 -5 3 -2 7 4 14 1
17 -6 3 -9 -3 -13 -18 -13 -13 1 -27 5 -30 8 -4 4 -13 4 -20 2 -15 -6 -15 12
-1 35 6 9 5 12 -2 7 -5 -3 -12 -1 -14 5 -2 6 -21 12 -41 13 -29 1 -43 -4 -60
-23 -12 -13 -17 -22 -12 -19 6 4 10 -6 10 -22 0 -18 -4 -26 -13 -23 -7 3 -19
0 -27 -7 -8 -7 -23 -10 -34 -7 -16 4 -18 0 -15 -29 1 -19 -2 -34 -7 -34 -6 0
-8 4 -4 9 3 5 2 12 -3 15 -13 8 -8 -67 7 -93 7 -13 9 -21 3 -17 -5 3 -12 -1
-16 -9 -3 -8 -1 -17 4 -20 6 -4 10 -1 10 6 0 7 2 10 5 7 3 -3 3 -13 -1 -22 -5
-14 -9 -14 -23 -4 -12 10 -11 7 2 -9 11 -12 14 -22 8 -24 -6 -2 -1 -10 11 -18
21 -13 22 -13 9 2 -17 21 -11 21 25 2 16 -8 23 -15 15 -15 -8 0 -12 -2 -9 -5
11 -11 37 7 32 23 -4 11 -1 10 7 -3 7 -11 14 -29 14 -39 2 -17 1 -18 -10 -2
-11 15 -13 15 -19 1 -3 -9 -2 -13 4 -10 6 3 10 1 10 -4 0 -6 7 -11 16 -11 8 0
13 -3 11 -7 -2 -5 5 -17 16 -27 16 -15 19 -16 14 -4 -3 10 0 19 9 22 7 3 13 2
13 -2 -3 -19 2 -23 14 -13 10 8 14 7 14 -4 0 -8 -5 -11 -10 -8 -5 3 -7 0 -5
-8 3 -8 12 -12 19 -11 8 2 11 0 7 -4 -4 -4 -3 -13 3 -20 7 -8 6 -14 -2 -20 -7
-4 -9 -3 -5 4 4 6 -4 16 -16 22 -20 9 -21 9 -7 -2 17 -14 19 -18 20 -45 0 -16
1 -16 8 1 6 16 9 17 22 4 11 -11 19 -11 36 -3 13 7 20 15 15 20 -4 4 2 3 13
-3 23 -11 25 -12 61 -12 16 0 23 -4 18 -12 -5 -7 -3 -8 5 -4 7 5 10 14 7 22
-6 14 10 20 16 6 2 -4 11 0 20 10 14 14 15 18 4 18 -8 0 -16 -5 -18 -12 -3 -9
-6 -9 -12 0 -4 7 -2 12 4 12 6 0 8 5 4 12 -4 7 -3 8 4 4 11 -7 17 6 13 28 -1
5 4 5 11 0 20 -15 43 -11 40 8 -1 9 6 22 16 27 26 14 34 59 13 71 -14 8 -14 9
2 10 9 0 17 5 17 11 0 5 -4 7 -10 4 -5 -3 -10 3 -10 14 0 11 5 23 12 27 8 5 9
1 4 -12 -5 -14 -4 -16 5 -7 12 12 3 37 -11 28 -5 -3 -11 -1 -15 5 -3 5 1 10 9
10 9 0 16 5 16 11 0 5 -5 7 -11 3 -15 -9 -1 38 15 49 7 6 4 7 -6 3 -10 -3 -20
-1 -23 4 -4 6 1 10 9 10 9 0 16 5 16 11 0 5 -4 7 -10 4 -5 -3 -10 1 -10 10 0
9 4 14 9 10 5 -3 13 0 17 6 4 8 3 9 -4 5 -7 -4 -12 -2 -12 4 0 6 -5 8 -12 4
-7 -4 -8 -3 -4 5 4 6 11 9 16 6 11 -7 7 22 -5 32 -4 4 -5 2 0 -6 6 -10 4 -12
-4 -7 -9 6 -9 11 0 22 10 12 14 12 20 2 5 -8 9 -8 9 -2 0 6 -9 19 -20 29 -11
10 -17 22 -13 28 4 6 12 3 20 -8 19 -27 16 -4 -4 25 l-17 25 22 -19 c19 -17
22 -17 28 -2 3 9 11 13 17 9 6 -4 7 -1 2 7 -6 10 -10 10 -20 -3 -10 -14 -13
-13 -25 6 -12 19 -11 21 2 9 12 -10 17 -10 27 1 6 8 7 18 3 22 -4 5 -1 5 6 1
7 -4 10 -12 7 -17 -4 -5 1 -9 9 -9 9 0 19 0 24 0 4 0 7 6 7 13 1 6 6 11 13 10
6 -2 9 4 5 12 -5 13 -7 13 -18 -2 -7 -10 -11 -22 -8 -27 4 -5 1 -6 -5 -2 -9 5
-8 15 3 37 9 16 11 29 6 29 -11 0 -9 55 2 66 10 10 9 24 -2 21 -5 -1 -9 1 -10
6 -3 25 1 28 21 11 20 -17 21 -17 8 -1 -12 16 -12 20 1 28 10 8 7 8 -11 4 -20
-6 -23 -5 -12 6 14 15 16 30 3 26 -5 -1 -9 1 -10 6 -3 25 1 28 21 11 20 -17
21 -17 8 -1 -12 16 -12 20 1 28 10 8 7 8 -11 3 -22 -6 -23 -5 -11 10 11 13 11
16 0 17 -8 0 -5 4 6 9 14 6 16 9 4 9 -11 1 -15 12 -15 45 0 38 2 43 20 39 19
-4 19 -3 -2 9 -24 15 -20 28 7 28 14 0 14 -2 1 -10 -12 -7 -10 -9 6 -8 18 2
20 5 11 19 -6 10 -15 15 -21 12 -5 -3 -6 -1 -2 6 4 6 12 9 17 5 5 -3 21 2 35
11 13 9 29 13 35 9 6 -3 5 4 -3 17 -21 34 -19 196 2 209 13 8 13 11 1 22 -11
11 -13 11 -6 -1 5 -8 4 -12 -1 -8 -11 6 -12 192 -2 203 4 3 3 15 -2 25 -7 12
-6 22 5 32 8 8 11 18 7 21 -3 4 1 4 11 0 12 -4 17 -1 18 12 0 16 2 15 10 -4 5
-13 12 -21 17 -18 8 5 10 -229 1 -238 -3 -3 -5 6 -5 21 1 15 -5 28 -14 30 -9
3 -11 1 -4 -4 5 -4 10 -18 11 -30 2 -53 3 -58 11 -46 5 7 8 -15 7 -50 -1 -44
-5 -61 -14 -59 -7 1 -10 -2 -7 -7 3 -5 -1 -12 -10 -15 -12 -5 -14 -1 -9 17 5
19 4 20 -5 4 -15 -24 -4 -40 20 -27 26 14 34 12 21 -4 -7 -8 -8 -17 -3 -20 5
-3 9 -28 8 -56 -1 -27 2 -50 7 -50 4 0 5 -4 2 -10 -3 -5 -1 -10 5 -10 7 0 10
7 7 15 -4 8 -1 17 5 21 7 5 8 2 3 -6 -6 -10 -4 -12 9 -7 10 4 19 1 22 -8 4 -8
11 -12 17 -8 5 3 7 1 3 -5 -3 -6 -3 -13 2 -16 4 -2 7 -57 7 -120 0 -73 3 -116
10 -116 6 0 6 -3 -1 -8 -6 -4 -10 -31 -9 -60 1 -40 -2 -51 -12 -48 -7 3 -13 1
-13 -4 0 -6 10 -10 23 -10 17 0 19 -2 7 -9 -8 -6 -18 -7 -24 -4 -5 3 -6 1 -2
-6 4 -6 13 -9 19 -5 7 3 4 -1 -6 -9 -19 -16 -13 -24 33 -46 23 -11 23 -11 7 2
-14 11 -15 16 -5 21 7 3 3 3 -9 0 -13 -3 -23 -2 -23 3 0 13 39 13 47 0 4 -7 9
-21 10 -32 4 -23 23 -37 43 -30 11 4 10 1 -2 -9 -19 -14 -25 -32 -8 -21 5 3
10 -1 10 -9 0 -8 -8 -20 -17 -26 -16 -10 -15 -11 5 -7 12 3 22 1 22 -4 0 -5
-8 -9 -17 -10 -11 0 -13 -3 -5 -6 6 -2 12 -9 12 -14 0 -6 -4 -8 -9 -4 -5 3
-13 0 -17 -6 -5 -8 -3 -9 6 -4 8 5 11 3 8 -6 -3 -8 -1 -22 3 -31 6 -11 5 -19
-3 -24 -6 -4 -8 -3 -4 4 3 6 2 13 -3 16 -8 5 -8 -15 -1 -34 1 -3 2 -9 1 -13
-1 -5 3 -6 9 -2 6 3 7 12 3 18 -3 7 3 3 15 -7 26 -23 26 -22 8 -29 -11 -4 -13
-1 -9 11 6 14 5 15 -9 2 -14 -13 -14 -16 0 -26 8 -6 26 -9 39 -6 22 4 24 2 18
-18 -6 -20 -5 -21 8 -9 8 8 12 19 9 24 -2 6 1 4 9 -3 14 -13 21 -94 7 -86 -4
3 -8 0 -8 -6 0 -6 -5 -8 -12 -4 -7 4 -8 3 -4 -4 4 -6 13 -9 20 -6 9 3 12 -3
11 -23 -1 -18 -7 -27 -16 -25 -10 2 -9 -2 3 -11 17 -14 19 -32 5 -54 -5 -7 -5
-13 0 -13 4 0 1 -5 -7 -10 -10 -7 -11 -10 -2 -11 6 -1 18 -2 25 -3 6 -1 15 3
19 9 5 7 8 7 8 -1 0 -6 16 -10 35 -9 19 1 32 -1 30 -5 -8 -12 49 -8 58 4 5 7
7 4 5 -8 -2 -10 3 -21 10 -23 7 -3 10 1 6 10 -4 10 1 14 19 12 13 -2 24 2 24
9 0 7 -6 13 -13 13 -7 0 -10 -5 -7 -10 4 -6 1 -7 -7 -2 -10 6 -10 10 3 20 10
7 15 21 12 34 -4 19 -2 21 11 10 12 -10 13 -9 8 5 -3 9 -9 16 -13 16 -4 0 -7
15 -7 34 1 27 4 32 14 24 9 -8 11 -7 6 6 -3 9 -10 16 -14 16 -9 0 -6 87 3 97
4 3 7 1 7 -6 0 -7 5 -9 10 -6 7 4 6 14 -1 28 -9 20 -9 20 4 4 16 -19 32 -24
21 -6 -5 8 -1 8 14 0 28 -15 35 -14 28 4 -3 8 0 14 6 12 15 -3 17 24 4 42 -15
19 -16 63 -1 57 6 -2 18 0 26 6 11 8 11 9 -3 4 -24 -7 -48 36 -27 50 5 3 9 10
9 15 0 6 -4 8 -8 5 -4 -2 -9 5 -9 17 -2 15 0 18 6 9 7 -11 9 -10 14 2 4 9 2
16 -3 16 -6 0 -10 4 -10 10 0 5 7 6 17 3 11 -4 14 -3 9 5 -11 19 5 14 20 -5
13 -17 14 -17 7 1 -4 13 -3 17 5 12 6 -4 16 3 22 16 11 22 10 22 -4 4 -9 -11
-16 -14 -16 -7 0 7 -5 9 -12 5 -7 -4 -8 -3 -4 5 4 6 11 9 16 6 5 -3 12 0 15 6
4 5 13 8 21 5 9 -3 11 0 7 11 -5 12 -3 14 8 8 12 -8 12 -6 0 8 -15 18 -26 23
-16 7 3 -5 1 -10 -5 -10 -7 0 -9 7 -6 16 3 9 6 18 6 20 0 3 4 3 9 0 12 -8 2
35 -13 53 -8 11 -8 13 2 7 6 -4 12 -3 12 3 0 5 -4 13 -10 16 -5 3 -10 12 -9
18 0 9 2 9 6 0 2 -7 12 -13 21 -13 10 0 13 3 7 8 -25 18 -36 40 -24 48 8 4 9
3 5 -4 -4 -7 -2 -12 3 -12 16 0 13 16 -4 30 -8 7 -15 17 -15 22 0 5 7 2 16 -6
25 -25 27 -19 5 13 -12 16 -21 33 -21 38 0 4 5 1 10 -7 7 -12 11 -12 20 -2 5
6 7 10 3 7 -8 -6 -37 35 -29 42 3 4 6 1 6 -5 0 -7 8 -12 18 -12 9 0 13 4 7 8
-5 4 -16 15 -24 25 -12 15 -12 17 2 11 16 -6 19 18 4 33 -4 4 2 12 14 18 18
10 19 13 5 18 -9 4 -16 2 -16 -3 0 -6 -5 -10 -11 -10 -8 0 -8 4 1 14 8 11 18
12 35 6 15 -6 27 -6 30 1 4 5 10 7 15 4 16 -10 32 23 20 44 -11 22 -6 26 30
22 8 -1 2 7 -15 18 -16 12 -25 21 -18 21 7 0 17 10 24 21 8 16 8 20 -1 14 -13
-8 -10 26 3 36 5 3 2 9 -6 12 -11 4 -15 0 -12 -13 2 -11 1 -22 -3 -24 -4 -3
-8 11 -8 29 0 18 4 31 8 29 4 -3 8 0 8 6 0 6 5 8 12 4 7 -4 8 -3 4 4 -4 6 -14
9 -24 6 -14 -5 -15 -4 -2 5 13 10 13 12 0 21 -9 6 -11 10 -3 10 7 0 17 10 24
21 8 15 8 19 0 15 -6 -4 -11 -2 -11 4 0 6 -5 8 -12 4 -7 -4 -8 -3 -4 5 4 6 12
9 17 6 5 -4 9 -1 9 4 0 6 -7 11 -15 11 -18 0 -20 16 -3 26 6 4 8 3 5 -3 -3 -5
0 -10 7 -10 20 0 7 27 -13 27 -14 1 -14 2 2 11 21 12 22 29 2 29 -18 0 -20 16
-3 26 6 4 8 3 5 -3 -3 -5 0 -10 7 -10 8 0 12 6 9 14 -3 7 -12 13 -20 13 -11 0
-8 6 8 20 13 10 18 19 12 20 -7 0 -13 -4 -13 -10 0 -5 -4 -10 -10 -10 -12 0
-9 22 4 32 6 4 18 2 29 -3 15 -9 16 -13 5 -27 -12 -15 -11 -16 6 -2 17 14 17
15 -3 32 -12 9 -21 20 -21 23 1 4 -1 10 -5 13 -4 4 -5 1 -3 -7 2 -7 -4 -16
-12 -18 -13 -4 -13 -3 0 6 13 10 13 11 0 11 -12 0 -12 2 -2 9 8 4 13 12 13 17
-1 12 21 12 37 1 9 -7 9 -13 2 -22 -8 -10 -8 -15 1 -21 8 -4 9 -3 5 4 -4 7 -3
12 2 12 6 0 13 -7 16 -16 3 -8 2 -12 -4 -9 -11 7 -9 -23 3 -42 4 -6 3 -14 -3
-18 -5 -3 -10 -11 -10 -16 0 -6 6 -7 13 -3 8 5 8 2 -2 -9 -10 -13 -11 -20 -2
-31 8 -10 9 -16 1 -21 -15 -9 -13 -28 3 -19 6 4 3 -3 -8 -16 -11 -13 -15 -20
-8 -17 6 4 15 2 19 -4 4 -7 3 -9 -2 -6 -6 3 -16 2 -24 -4 -13 -7 -12 -9 1 -9
9 0 20 -7 23 -16 6 -15 4 -15 -10 -3 -16 13 -16 12 -6 -7 8 -16 8 -24 -1 -34
-10 -10 -8 -12 6 -7 14 5 16 3 8 -12 -7 -12 -7 -21 0 -28 7 -7 5 -12 -5 -16
-11 -4 -13 -1 -9 11 7 18 5 17 -16 -10 -11 -15 -10 -17 8 -13 11 2 24 -1 27
-7 5 -7 2 -8 -6 -3 -10 6 -12 4 -7 -7 3 -9 0 -21 -6 -28 -10 -10 -8 -12 6 -7
14 6 16 4 8 -10 -6 -12 -5 -26 5 -45 11 -22 12 -33 4 -49 -11 -19 -10 -20 9
-9 20 10 26 6 21 -15 -1 -5 2 -7 6 -3 4 4 13 0 21 -10 13 -15 13 -15 4 4 -6
12 -7 25 -3 29 4 5 1 5 -6 0 -11 -6 -12 -3 -3 14 14 25 23 28 14 4 -4 -11 -3
-14 5 -9 7 4 12 2 12 -3 0 -6 -5 -11 -10 -11 -7 0 -6 -8 2 -22 16 -32 18 -60
2 -54 -8 3 -11 0 -7 -11 3 -8 0 -19 -8 -25 -11 -8 -10 -9 3 -4 10 3 20 1 23
-4 3 -5 -5 -12 -17 -16 l-21 -6 20 -12 c17 -9 18 -13 8 -23 -7 -6 -16 -10 -19
-7 -3 2 -2 -2 4 -8 15 -18 13 -51 -2 -42 -9 5 -9 2 1 -9 14 -18 26 -23 16 -8
-3 5 -2 12 2 14 5 3 8 -19 9 -49 0 -42 -3 -53 -13 -49 -8 2 -12 1 -8 -4 3 -5
2 -11 -2 -14 -5 -2 -3 -2 4 -1 15 4 19 -11 18 -63 0 -35 2 -40 14 -30 12 10
13 8 6 -13 -7 -24 -7 -24 9 -5 12 16 16 17 17 5 1 -8 1 -19 0 -23 -1 -5 2 -6
7 -3 5 3 18 -15 30 -38 l21 -44 -22 5 c-20 5 -20 4 -6 -8 10 -8 16 -27 15 -44
-1 -16 2 -38 6 -47 5 -10 3 -18 -4 -20 -8 -3 -8 -9 0 -25 10 -19 9 -21 -11
-16 -18 4 -19 3 -6 -6 16 -11 24 -71 9 -71 -4 0 -11 -7 -14 -16 -5 -14 -4 -15
8 -5 11 9 16 9 22 0 4 -8 3 -9 -4 -5 -15 9 -16 -6 -1 -21 8 -8 7 -13 -2 -18
-8 -6 -10 -4 -4 5 5 8 4 11 -3 7 -5 -4 -9 -15 -7 -25 2 -9 4 -24 4 -32 1 -13
2 -13 11 0 6 9 5 17 -3 22 -7 4 -7 8 -2 8 6 -1 19 -8 30 -17 16 -12 17 -14 3
-10 -14 5 -17 1 -16 -17 2 -16 7 -22 17 -18 10 4 12 1 6 -9 -7 -11 -5 -11 10
1 14 11 19 12 22 2 3 -6 9 -10 13 -7 5 3 12 0 16 -6 4 -8 3 -9 -4 -5 -7 4 -12
3 -12 -3 0 -12 41 -37 53 -33 5 1 6 -2 2 -8 -4 -6 -15 -4 -30 6 -15 10 -25 12
-30 5 -6 -11 -4 -12 25 -15 8 0 14 -7 12 -13 -1 -7 2 -13 8 -13 5 0 10 5 10
11 0 6 6 9 13 6 6 -2 21 3 31 12 11 9 16 10 12 3 -8 -14 10 -17 19 -2 3 6 12
10 18 9 9 0 9 -2 0 -6 -10 -3 -9 -9 3 -20 14 -14 17 -14 32 3 14 14 14 15 1 6
-12 -9 -16 -9 -16 1 0 8 13 13 34 13 21 0 32 -5 29 -12 -2 -6 0 -17 5 -25 7
-11 9 -11 9 -1 0 7 5 10 12 6 7 -4 8 -3 4 5 -4 6 -12 8 -18 5 -7 -4 -8 -2 -4
4 5 9 13 9 28 1 18 -10 20 -9 15 5 -8 19 4 28 23 15 8 -5 10 -9 4 -9 -6 0 -11
-7 -11 -16 0 -15 2 -14 13 1 11 15 11 21 1 34 -10 12 -9 14 4 9 9 -4 16 -1 16
8 0 7 -6 15 -12 18 -8 2 -10 15 -8 30 6 30 -14 60 -31 48 -6 -5 -17 -7 -23 -6
-7 1 -17 2 -22 3 -5 0 -7 11 -3 23 3 11 1 19 -4 16 -5 -4 -9 18 -9 48 0 40 3
53 13 49 7 -3 10 0 7 6 -4 5 -1 18 6 27 10 12 6 11 -10 -3 l-24 -20 12 22 c14
28 14 36 -1 27 -10 -6 -10 -4 -2 7 15 18 14 80 0 72 -6 -4 -5 1 3 10 8 10 10
24 6 34 -14 31 -14 45 -1 40 15 -6 14 39 -2 55 -16 16 -16 41 1 32 8 -5 7 -2
-2 9 -8 10 -21 15 -32 12 -19 -6 -36 26 -23 46 5 8 3 9 -5 4 -7 -4 -11 -16 -8
-26 6 -21 -1 -23 -23 -9 -13 9 -13 10 0 11 10 0 8 3 -5 9 l-20 9 20 0 c13 1
16 4 8 9 -7 4 -10 19 -8 34 3 15 1 30 -5 33 -6 4 -7 12 -3 18 10 16 10 157 1
163 -5 3 -5 11 -1 17 10 16 10 137 0 137 -5 0 -6 4 -2 9 3 6 -3 10 -12 10 -80
3 -83 5 -68 28 20 30 19 38 -2 22 -17 -13 -17 -13 0 13 20 33 22 45 4 29 -11
-8 -13 -6 -12 9 1 11 4 23 8 26 10 10 9 26 -1 20 -5 -3 -9 1 -9 9 0 8 3 14 6
13 21 -2 22 4 5 18 -18 15 -18 15 0 10 13 -5 17 -2 13 9 -4 8 -2 17 4 21 6 3
6 11 1 17 -11 15 -9 26 6 55 7 12 9 22 4 22 -10 0 -25 -38 -22 -55 1 -5 -2 -7
-6 -2 -11 11 -12 47 -1 40 5 -3 6 4 2 17 -4 13 -3 20 2 17 5 -4 10 1 10 9 0 9
-6 13 -16 9 -13 -5 -14 -4 -3 6 13 14 17 33 4 25 -5 -3 -9 1 -9 9 0 8 3 14 6
13 20 -2 22 4 6 15 -14 11 -15 16 -5 22 9 5 11 4 6 -3 -11 -18 0 -14 15 5 10
11 10 14 2 9 -17 -10 -17 16 0 33 10 11 8 11 -10 2 -19 -10 -22 -9 -17 4 9 23
-5 65 -21 65 -8 0 -15 6 -15 13 0 8 -4 7 -10 -3 -6 -10 -10 -11 -10 -2 0 6 -5
12 -11 12 -5 0 -7 -4 -4 -10 10 -16 -1 -11 -16 7 -10 11 -10 14 -1 9 7 -4 12
-1 12 9 0 10 5 13 13 9 8 -5 8 -2 -2 9 -14 18 -26 23 -16 8 3 -5 1 -12 -4 -15
-12 -8 -6 53 8 67 16 16 14 27 -6 27 -10 0 -14 4 -8 8 6 4 11 18 13 32 2 20 1
22 -8 10 -10 -15 -10 -11 -1 40 1 3 6 -2 11 -10 7 -10 10 -11 10 -2 0 7 -7 15
-16 19 -13 5 -13 7 -2 14 10 7 10 9 1 9 -7 0 -13 6 -13 13 0 8 -15 12 -42 12
-45 0 -56 14 -34 44 8 11 8 13 0 8 -7 -4 -14 2 -17 14 -4 16 -3 18 8 9 10 -8
15 -8 21 1 4 7 3 9 -3 6 -6 -4 -15 5 -21 18 -10 21 -9 23 6 18 16 -6 16 -5 0
13 -14 16 -15 23 -5 34 9 10 9 11 0 6 -8 -4 -13 -2 -13 6 0 10 -19 12 -77 11
-94 -3 -124 -6 -118 -12 3 -2 -2 -13 -12 -23 -9 -11 -11 -18 -5 -18 7 0 12 5
12 10 0 6 5 10 10 10 7 0 7 -6 0 -19 -11 -21 -10 -48 3 -68 4 -6 2 -15 -4 -18
-5 -4 -8 -13 -5 -20 5 -14 -31 -33 -57 -29 -9 1 -22 -6 -28 -17 -5 -11 -15
-16 -21 -13 -7 4 -8 3 -4 -5 4 -6 11 -9 16 -6 11 7 7 -22 -5 -32 -4 -4 -5 -2
0 6 6 10 4 12 -5 6 -10 -6 -10 -10 2 -19 13 -10 13 -13 1 -24 -7 -7 -11 -18
-7 -23 3 -5 0 -17 -8 -26 -10 -14 -10 -15 0 -9 16 10 13 -25 -3 -36 -6 -5 -5
-8 4 -8 9 0 10 -4 4 -12 -13 -16 -13 -48 -1 -48 5 0 7 9 3 19 -3 11 -1 22 5
26 6 3 7 11 4 17 -4 6 -3 8 3 5 11 -7 10 -48 -1 -66 -3 -5 0 -12 6 -15 7 -2 4
-4 -7 -3 -11 2 -26 7 -34 11 -10 7 -12 6 -6 -4 6 -10 4 -12 -8 -7 -21 8 -34
-10 -41 -57 -4 -21 -9 -43 -13 -49 -4 -6 -1 -7 7 -2 8 5 11 3 8 -6 -3 -8 -12
-13 -19 -11 -8 2 -10 0 -6 -5 5 -4 13 -8 18 -8 5 0 9 -3 9 -7 0 -5 0 -10 0
-13 0 -3 -10 0 -22 6 l-23 12 20 -20 c11 -11 25 -18 30 -15 6 3 5 -1 -2 -9 -7
-9 -8 -20 -3 -29 13 -22 1 -31 -23 -19 l-22 12 20 -20 c11 -11 25 -18 30 -15
6 3 5 -1 -1 -9 -6 -8 -10 -24 -8 -37 2 -13 0 -21 -4 -18 -5 3 -9 -1 -9 -9 0
-8 3 -13 6 -12 3 1 6 -2 6 -8 0 -5 -7 -9 -15 -8 -10 2 -11 0 -2 -3 6 -3 9 -11
5 -17 -4 -7 0 -8 12 -3 14 5 15 3 8 -6 -6 -7 -9 -24 -7 -37 3 -18 1 -22 -9
-15 -7 5 -4 0 8 -10 12 -12 14 -17 5 -14 -8 3 -21 -1 -29 -9 -12 -13 -11 -14
7 -9 12 4 23 2 28 -5 4 -7 3 -9 -4 -5 -6 3 -13 2 -17 -4 -3 -5 -2 -10 4 -10 5
0 8 -9 6 -20 -2 -11 1 -20 7 -20 6 0 9 -3 6 -6 -4 -3 -17 0 -30 7 -20 11 -22
11 -10 -3 15 -19 3 -31 -18 -18 -19 12 -40 1 -40 -22 0 -12 -4 -17 -12 -12 -7
5 -8 3 -2 -7 14 -23 11 -299 -3 -299 -7 0 -13 -5 -13 -11 0 -5 4 -8 9 -4 6 3
10 -3 10 -12 0 -10 2 -34 4 -53 4 -36 -17 -65 -38 -52 -9 6 -14 8 -33 11 -10
1 -9 137 1 147 3 4 4 -3 2 -15 -2 -12 0 -19 5 -16 5 3 6 17 4 32 -3 15 0 30 8
35 10 6 8 13 -9 27 -25 21 -22 31 7 24 12 -3 17 -10 13 -17 -4 -6 2 -4 13 4
10 8 20 15 22 16 2 1 -9 1 -23 1 -38 0 -60 25 -46 51 14 26 14 35 0 27 -6 -4
-5 2 2 13 7 12 17 18 21 16 4 -3 8 0 8 5 0 15 -13 14 -29 -2 -11 -10 -12 -7
-6 13 4 14 12 30 18 35 7 7 8 4 3 -10 -5 -15 -4 -17 4 -8 9 8 9 16 1 30 -6 10
-11 12 -11 6 0 -7 -4 -13 -10 -13 -5 0 -9 3 -9 8 7 45 -1 51 -66 54 -16 0 -24
3 -17 5 6 3 12 9 12 14 0 6 -3 8 -7 6 -5 -3 -8 109 -8 249 -1 159 3 254 9 254
19 0 -29 29 -49 30 -17 0 -17 2 -5 10 8 5 10 10 5 10 -6 0 -16 -5 -23 -12 -9
-9 -12 -9 -12 1 0 7 -4 10 -9 6 -5 -3 -13 0 -17 6 -4 8 -3 9 4 5 7 -4 12 -3
12 3 0 5 -4 12 -8 15 -11 7 -9 47 3 66 14 22 15 44 3 51 -6 4 -12 23 -13 43
-1 29 2 36 14 31 14 -4 14 -4 0 7 -9 7 -14 19 -12 26 3 7 -4 13 -16 13 -12 1
-27 2 -33 3 -7 1 -13 10 -12 22 1 11 -5 21 -12 21 -10 0 -11 -4 -3 -14 9 -9 8
-13 0 -13 -7 0 -9 -5 -5 -12 4 -6 3 -8 -3 -5 -11 7 -11 36 1 55 4 6 2 12 -3
12 -6 0 -11 4 -11 10 0 5 6 7 14 4 8 -3 17 0 21 6 3 6 3 10 -2 9 -25 -4 -33 3
-29 25 10 53 -1 64 -67 68 -34 2 -79 2 -101 0z m-129 -327 c0 -8 -4 -12 -9 -9
-4 3 -8 9 -8 15 0 5 4 9 8 9 5 0 9 -7 9 -15z m396 -10 c-3 -9 -8 -14 -10 -11
-3 3 -2 9 2 15 9 16 15 13 8 -4z m957 -460 c0 -1 -6 -7 -13 -13 -10 -8 -13 -6
-13 7 0 11 6 17 13 14 7 -3 13 -6 13 -8z m-380 -5 c0 -5 -4 -10 -10 -10 -5 0
-10 5 -10 10 0 6 5 10 10 10 6 0 10 -4 10 -10z m-1064 -175 c0 -37 -9 -39 -12
-2 -1 19 3 37 9 37 1 0 2 -16 3 -35z m1064 15 c0 -5 -4 -10 -10 -10 -5 0 -10
5 -10 10 0 6 5 10 10 10 6 0 10 -4 10 -10z m-702 -105 c-3 -3 -9 2 -12 12 -6
14 -5 15 5 6 7 -7 10 -15 7 -18z m684 -7 c-7 -7 -12 -8 -12 -4 0 5 -8 2 -17
-5 -14 -12 -14 -10 2 14 12 20 21 25 28 18 8 -8 7 -15 -1 -23z m122 4 c3 -5
-1 -9 -9 -9 -8 0 -12 4 -9 9 3 4 7 8 9 8 2 0 6 -4 9 -8z m56 -212 c0 -5 -5
-10 -11 -10 -5 0 -7 5 -4 10 3 6 8 10 11 10 2 0 4 -4 4 -10z m-536 -21 c-8
-14 -21 -11 -21 5 0 8 6 12 14 9 7 -3 10 -9 7 -14z m192 -224 c-1 -8 -5 -17
-8 -21 -5 -4 -4 16 1 34 3 9 9 -1 7 -13z m-424 -23 c-7 -2 -12 -8 -12 -13 0
-6 5 -7 12 -3 7 4 8 3 4 -5 -10 -16 -25 -5 -23 18 1 12 6 17 16 13 10 -4 11
-7 3 -10z m844 -23 c0 -3 5 -13 13 -22 9 -11 10 -17 2 -17 -10 0 -12 5 -11 25
1 3 -6 13 -15 21 -8 9 -15 21 -15 27 0 6 6 3 14 -8 7 -11 13 -23 12 -26z
m-1536 -105 c0 -8 4 -14 10 -14 5 0 7 7 3 16 -5 14 -3 15 13 6 22 -12 28 -73
7 -65 -10 4 -11 9 -2 19 7 9 8 14 1 14 -16 0 -20 -23 -8 -42 13 -22 6 -28 -35
-33 -19 -2 -28 -1 -21 2 6 2 12 9 12 14 0 6 -4 8 -8 5 -5 -3 -9 2 -9 10 0 8 6
13 14 10 17 -7 29 22 15 36 -8 8 -10 5 -8 -8 2 -10 1 -13 -1 -6 -3 6 -9 12
-16 12 -6 0 -2 7 9 15 10 8 15 15 9 14 -22 -3 -29 2 -15 10 17 12 30 5 30 -15z
m707 -49 c0 -8 -4 -12 -9 -9 -5 3 -6 10 -3 15 9 13 12 11 12 -6z m-661 -55 c0
-16 -5 -30 -9 -30 -5 0 -6 8 -2 18 5 13 3 14 -6 5 -12 -12 -5 -48 8 -40 5 3 8
-12 8 -33 1 -21 -2 -37 -6 -34 -4 2 -10 0 -13 -5 -3 -5 0 -11 7 -14 8 -3 13
-15 12 -28 -2 -31 -51 -39 -60 -9 -3 11 -11 20 -18 20 -6 0 -2 7 9 15 11 9 13
14 5 13 -10 -2 -14 8 -15 34 -1 20 2 34 6 32 12 -8 9 11 -4 24 -15 15 -6 24
29 28 15 1 32 10 38 18 13 21 13 21 11 -14z m-282 -10 c-6 -6 -10 -3 -10 10 0
13 4 16 10 10 7 -7 7 -13 0 -20z m1343 5 c0 -8 -4 -12 -9 -9 -4 3 -8 9 -8 15
0 5 4 9 8 9 5 0 9 -7 9 -15z m-23 -21 c3 -8 2 -12 -4 -9 -6 3 -10 10 -10 16 0
14 7 11 14 -7z m-1294 -94 c8 -5 12 -11 10 -14 -3 -2 -14 2 -24 10 -22 15 -10
19 14 4z m185 -60 c3 -5 1 -10 -4 -10 -6 0 -11 5 -11 10 0 6 2 10 4 10 3 0 8
-4 11 -10z m220 -40 c-3 -5 -14 -10 -23 -9 -14 0 -13 2 3 9 27 11 27 11 20 0z
m19 -18 c3 -5 -1 -9 -9 -9 -8 0 -12 4 -9 9 3 4 7 8 9 8 2 0 6 -4 9 -8z m1386
-2 c0 -5 -7 -7 -15 -4 -8 4 -15 8 -15 10 0 2 7 4 15 4 8 0 15 -4 15 -10z
m-795 -49 c3 -5 2 -12 -3 -15 -5 -3 -9 1 -9 9 0 17 3 19 12 6z m906 -24 c-10
-9 -11 -8 -5 6 3 10 9 15 12 12 3 -3 0 -11 -7 -18z m-1703 0 c14 4 14 3 2 -5
-16 -12 -30 -7 -29 11 0 9 2 9 5 0 3 -7 13 -9 22 -6z"/>
<path d="M428 603 c7 -3 16 -2 19 1 4 3 -2 6 -13 5 -11 0 -14 -3 -6 -6z"/>
<path d="M407 563 c-2 -5 4 -21 13 -36 14 -23 19 -25 24 -12 3 9 2 14 -3 11
-9 -6 -26 22 -23 37 1 4 0 7 -2 7 -3 0 -7 -3 -9 -7z"/>
<path d="M409 508 c-7 -23 -3 -45 8 -41 16 6 17 23 2 23 -5 0 -7 5 -4 10 3 6
4 10 1 10 -3 0 -6 -1 -7 -2z"/>
<path d="M446 494 c-4 -9 -4 -19 -1 -22 3 -3 5 0 5 7 0 7 4 10 8 7 5 -3 9 1 9
9 0 20 -13 19 -21 -1z"/>
<path d="M426 443 c-7 -18 6 -36 30 -39 9 -1 13 1 9 4 -4 4 -12 7 -17 7 -6 0
-13 6 -16 14 -3 8 0 11 7 7 7 -5 9 -1 5 8 -8 20 -10 20 -18 -1z"/>
<path d="M1900 2326 c0 -2 7 -7 16 -10 8 -3 12 -2 9 4 -6 10 -25 14 -25 6z"/>
<path d="M1070 2300 c-6 -11 -8 -20 -6 -20 3 0 10 9 16 20 6 11 8 20 6 20 -3
0 -10 -9 -16 -20z"/>
<path d="M1670 2281 c0 -6 4 -13 10 -16 6 -3 7 1 4 9 -7 18 -14 21 -14 7z"/>
<path d="M1920 2280 c-9 -6 -10 -10 -3 -10 6 0 15 5 18 10 8 12 4 12 -15 0z"/>
<path d="M1660 2241 c0 -6 5 -11 11 -11 5 0 7 -6 3 -12 -5 -9 -2 -9 9 1 9 7
17 16 17 19 0 3 -3 2 -7 -1 -3 -4 -12 -2 -20 4 -9 9 -13 8 -13 0z"/>
<path d="M818 2203 c6 -2 9 -10 6 -15 -4 -7 -2 -8 5 -4 13 9 5 26 -12 25 -9 0
-8 -2 1 -6z"/>
<path d="M1913 2195 c0 -8 4 -12 9 -9 5 3 6 10 3 15 -9 13 -12 11 -12 -6z"/>
<path d="M1154 1965 c0 -13 3 -22 7 -19 8 4 6 30 -2 38 -3 3 -5 -5 -5 -19z"/>
<path d="M2005 1980 c-3 -5 -2 -10 4 -10 5 0 13 5 16 10 3 6 2 10 -4 10 -5 0
-13 -4 -16 -10z"/>
<path d="M1255 1840 c3 -5 8 -10 11 -10 2 0 4 5 4 10 0 6 -5 10 -11 10 -5 0
-7 -4 -4 -10z"/>
<path d="M1736 1829 c3 -5 12 -9 21 -9 19 0 9 13 -12 16 -8 1 -13 -2 -9 -7z"/>
<path d="M906 1822 c-3 -6 1 -18 10 -26 19 -20 23 -20 20 -1 -3 22 -22 39 -30
27z"/>
<path d="M1475 1821 c-3 -5 -2 -12 3 -15 5 -3 9 1 9 9 0 17 -3 19 -12 6z"/>
<path d="M1253 1805 c0 -7 6 -11 14 -8 7 3 13 6 13 8 0 2 -6 5 -13 8 -8 3 -14
-1 -14 -8z"/>
<path d="M877 1804 c-3 -4 1 -13 9 -21 19 -20 26 -13 10 9 -7 10 -16 15 -19
12z"/>
<path d="M920 1761 c0 -6 4 -12 8 -15 5 -3 9 1 9 9 0 8 -4 15 -9 15 -4 0 -8
-4 -8 -9z"/>
<path d="M895 1750 c6 -9 4 -12 -6 -8 -11 4 -15 -3 -15 -28 0 -19 4 -34 8 -34
4 0 6 10 4 22 -1 13 4 28 12 34 12 9 12 13 2 19 -9 6 -11 4 -5 -5z"/>
<path d="M1253 1747 c0 -8 6 -14 14 -14 9 0 10 4 2 14 -6 7 -12 13 -14 13 -1
0 -2 -6 -2 -13z"/>
<path d="M1770 1729 c0 -5 5 -7 10 -4 6 3 10 8 10 11 0 2 -4 4 -10 4 -5 0 -10
-5 -10 -11z"/>
<path d="M919 1721 c11 -7 10 -10 -5 -13 -18 -4 -18 -4 1 -9 16 -5 21 -1 22
12 1 12 -5 19 -15 19 -14 0 -14 -2 -3 -9z"/>
<path d="M1487 1683 c18 -28 28 -31 14 -4 -6 10 -8 20 -6 23 3 3 -1 5 -9 5
-12 0 -12 -4 1 -24z"/>
<path d="M1253 1687 c0 -8 6 -14 14 -14 9 0 10 4 2 14 -6 7 -12 13 -14 13 -1
0 -2 -6 -2 -13z"/>
<path d="M908 1674 c-3 -14 0 -20 12 -20 9 0 17 6 17 13 0 7 -4 10 -8 7 -4 -2
-9 1 -11 8 -3 7 -7 4 -10 -8z"/>
<path d="M1753 1675 c0 -8 4 -12 9 -9 5 3 6 10 3 15 -9 13 -12 11 -12 -6z"/>
<path d="M1770 1649 c0 -5 5 -7 10 -4 6 3 10 8 10 11 0 2 -4 4 -10 4 -5 0 -10
-5 -10 -11z"/>
<path d="M1253 1625 c0 -7 6 -11 14 -8 7 3 13 6 13 8 0 2 -6 5 -13 8 -8 3 -14
-1 -14 -8z"/>
<path d="M883 1624 c9 -3 15 -10 11 -15 -3 -5 -9 -7 -13 -5 -4 3 -8 -1 -8 -9
0 -12 3 -12 16 -2 12 10 14 9 8 -6 -4 -11 -3 -16 3 -12 17 10 4 50 -16 52 -16
2 -16 1 -1 -3z"/>
<path d="M1480 1615 c5 -7 6 -16 2 -21 -4 -5 -3 -5 2 -1 15 12 15 34 0 34 -9
0 -11 -4 -4 -12z"/>
<path d="M1253 1565 c0 -7 6 -11 14 -8 7 3 13 6 13 8 0 2 -6 5 -13 8 -8 3 -14
-1 -14 -8z"/>
<path d="M911 1559 c-1 -9 7 -23 17 -30 15 -12 16 -12 6 1 -6 8 -14 22 -17 30
-5 13 -6 12 -6 -1z"/>
<path d="M1740 1536 c0 -2 9 -6 20 -9 11 -3 18 -1 14 4 -5 9 -34 13 -34 5z"/>
<path d="M890 1520 c0 -5 5 -10 10 -10 6 0 10 5 10 10 0 6 -4 10 -10 10 -5 0
-10 -4 -10 -10z"/>
<path d="M1253 1507 c0 -8 6 -14 14 -14 9 0 10 4 2 14 -6 7 -12 13 -14 13 -1
0 -2 -6 -2 -13z"/>
<path d="M873 1495 c0 -8 4 -15 9 -15 4 0 8 4 8 9 0 6 -4 12 -8 15 -5 3 -9 -1
-9 -9z"/>
<path d="M919 1508 c-6 -22 -5 -37 4 -41 7 -3 13 6 13 19 1 13 -2 24 -7 24 -5
0 -9 -1 -10 -2z"/>
<path d="M1750 1480 c-8 -5 -10 -10 -5 -10 6 0 17 5 25 10 8 5 11 10 5 10 -5
0 -17 -5 -25 -10z"/>
<path d="M873 1455 c0 -8 4 -12 9 -9 4 3 8 9 8 15 0 5 -4 9 -8 9 -5 0 -9 -7
-9 -15z"/>
<path d="M1253 1447 c0 -8 6 -14 14 -14 9 0 10 4 2 14 -6 7 -12 13 -14 13 -1
0 -2 -6 -2 -13z"/>
<path d="M913 1389 c13 -8 15 -14 7 -30 -6 -10 -8 -19 -6 -19 3 0 10 10 17 21
11 22 0 39 -26 39 -5 -1 -2 -5 8 -11z"/>
<path d="M1256 1387 c3 -10 9 -15 12 -12 3 3 0 11 -7 18 -10 9 -11 8 -5 -6z"/>
<path d="M874 1373 c3 -20 22 -28 31 -14 3 7 0 8 -10 5 -11 -5 -14 -2 -9 10 3
9 2 16 -4 16 -6 0 -9 -8 -8 -17z"/>
<path d="M1470 1376 c0 -2 7 -7 16 -10 8 -3 12 -2 9 4 -6 10 -25 14 -25 6z"/>
<path d="M1750 1370 c8 -5 20 -10 25 -10 6 0 3 5 -5 10 -8 5 -19 10 -25 10 -5
0 -3 -5 5 -10z"/>
<path d="M2110 1360 c-9 -6 -10 -10 -3 -10 6 0 15 5 18 10 8 12 4 12 -15 0z"/>
<path d="M1763 1335 c-10 -11 -9 -15 9 -20 16 -6 18 -9 7 -16 -9 -6 -10 -9 -2
-9 19 0 22 13 10 37 -10 17 -14 19 -24 8z"/>
<path d="M923 1333 c-17 -6 -17 -20 0 -20 8 0 14 6 14 14 0 7 -1 13 -1 12 -1
0 -7 -3 -13 -6z"/>
<path d="M860 1300 c0 -6 7 -10 15 -10 8 0 15 2 15 4 0 2 -7 6 -15 10 -8 3
-15 1 -15 -4z"/>
<path d="M830 1280 c0 -5 5 -10 10 -10 6 0 10 5 10 10 0 6 -4 10 -10 10 -5 0
-10 -4 -10 -10z"/>
<path d="M910 1279 c0 -5 5 -7 10 -4 6 3 10 8 10 11 0 2 -4 4 -10 4 -5 0 -10
-5 -10 -11z"/>
<path d="M989 1288 c-7 -25 -4 -35 10 -34 10 1 15 -5 13 -16 -2 -10 1 -18 7
-18 15 0 6 31 -12 45 -9 7 -14 15 -10 18 3 4 3 7 0 7 -4 0 -7 -1 -8 -2z"/>
<path d="M2194 1245 c0 -13 3 -22 7 -19 8 4 6 30 -2 38 -3 3 -5 -5 -5 -19z"/>
<path d="M541 1231 c-8 -5 -9 -11 -3 -15 5 -3 12 1 16 9 6 17 6 18 -13 6z"/>
<path d="M1380 1236 c0 -2 7 -7 16 -10 8 -3 12 -2 9 4 -6 10 -25 14 -25 6z"/>
<path d="M1860 1220 c-9 -6 -10 -10 -3 -10 6 0 15 5 18 10 8 12 4 12 -15 0z"/>
<path d="M1012 1201 c-11 -7 -11 -9 0 -14 9 -3 15 1 15 9 0 8 -1 14 -1 14 -1
0 -7 -4 -14 -9z"/>
<path d="M1384 1195 c5 -11 8 -28 8 -37 0 -10 3 -18 7 -18 13 0 7 46 -8 60
-13 13 -14 12 -7 -5z"/>
<path d="M2199 1205 c-1 -3 -2 -8 -3 -12 -1 -5 -5 -13 -9 -20 -4 -6 -3 -14 2
-18 5 -3 8 -15 6 -27 -3 -11 -1 -18 3 -14 6 7 11 96 5 96 -2 0 -4 -2 -4 -5z"/>
<path d="M546 1187 c3 -10 9 -15 12 -12 3 3 0 11 -7 18 -10 9 -11 8 -5 -6z"/>
<path d="M546 1147 c3 -10 9 -15 12 -12 3 3 0 11 -7 18 -10 9 -11 8 -5 -6z"/>
<path d="M1344 1149 c-3 -6 -1 -16 5 -22 9 -9 10 -7 5 8 -7 18 -6 19 9 6 15
-12 17 -12 11 3 -7 18 -20 21 -30 5z"/>
<path d="M1007 1139 c7 -7 15 -10 18 -7 3 3 -2 9 -12 12 -14 6 -15 5 -6 -5z"/>
<path d="M1013 1105 c0 -8 4 -15 9 -15 4 0 8 4 8 9 0 6 -4 12 -8 15 -5 3 -9
-1 -9 -9z"/>
<path d="M540 1090 c-9 -6 -10 -10 -3 -10 6 0 15 5 18 10 8 12 4 12 -15 0z"/>
<path d="M536 1061 c-3 -5 2 -15 12 -22 15 -13 16 -12 4 3 -10 13 -10 17 0 21
9 4 9 6 1 6 -6 1 -14 -3 -17 -8z"/>
<path d="M2193 1050 c1 -11 5 -20 9 -20 3 0 6 9 5 20 -1 11 -5 20 -9 20 -3 0
-6 -9 -5 -20z"/>
<path d="M1011 1047 c-8 -10 -7 -14 2 -14 8 0 14 6 14 14 0 7 -1 13 -2 13 -2
0 -8 -6 -14 -13z"/>
<path d="M1389 1049 c5 -6 7 -18 4 -25 -3 -8 -1 -14 5 -14 13 0 9 27 -6 40 -8
7 -9 7 -3 -1z"/>
<path d="M1019 1018 c-5 -18 -6 -38 -1 -34 7 8 12 36 6 36 -2 0 -4 -1 -5 -2z"/>
<path d="M2192 1015 c4 -4 3 -14 -3 -21 -10 -13 6 -32 18 -20 4 3 1 6 -7 6
-10 0 -10 3 -1 14 9 11 9 16 -1 22 -7 4 -10 4 -6 -1z"/>
<path d="M1371 994 c0 -11 3 -14 6 -6 3 7 2 16 -1 19 -3 4 -6 -2 -5 -13z"/>
<path d="M1854 999 c1 -8 7 -23 14 -34 11 -19 12 -19 9 3 -2 12 -8 27 -14 33
-9 9 -11 8 -9 -2z"/>
<path d="M1355 960 c3 -5 8 -10 11 -10 2 0 4 5 4 10 0 6 -5 10 -11 10 -5 0 -7
-4 -4 -10z"/>
<path d="M1010 941 c0 -6 4 -12 8 -15 5 -3 9 1 9 9 0 8 -4 15 -9 15 -4 0 -8
-4 -8 -9z"/>
<path d="M1345 913 c1 -18 5 -36 9 -40 5 -5 5 2 2 14 -6 18 -4 22 8 17 8 -3
12 -12 10 -19 -8 -21 12 -26 27 -7 13 16 12 16 -4 3 -17 -13 -18 -13 -15 1 1
10 -6 24 -17 32 -17 13 -18 15 -3 16 26 0 29 15 4 15 -19 0 -23 -5 -21 -32z"/>
<path d="M2193 935 c0 -8 4 -12 9 -9 5 3 6 10 3 15 -9 13 -12 11 -12 -6z"/>
<path d="M794 922 c3 -5 0 -13 -6 -15 -9 -4 -10 -6 -1 -6 17 -1 25 16 12 25
-7 4 -9 3 -5 -4z"/>
<path d="M1390 919 c0 -5 5 -7 10 -4 6 3 10 8 10 11 0 2 -4 4 -10 4 -5 0 -10
-5 -10 -11z"/>
<path d="M543 892 c-1 -22 0 -24 9 -8 6 10 6 22 2 26 -5 5 -10 -3 -11 -18z"/>
<path d="M1860 890 c-9 -6 -10 -10 -3 -10 6 0 15 5 18 10 8 12 4 12 -15 0z"/>
<path d="M1857 855 c-4 -8 -1 -17 6 -21 7 -4 9 -4 5 1 -4 4 -3 14 3 22 7 8 8
13 1 13 -5 0 -12 -7 -15 -15z"/>
<path d="M459 808 c-6 -20 -6 -39 0 -42 4 -3 7 6 7 20 0 20 -4 32 -7 22z"/>
<path d="M1555 760 c-3 -5 -1 -10 4 -10 6 0 11 5 11 10 0 6 -2 10 -4 10 -3 0
-8 -4 -11 -10z"/>
<path d="M1957 675 c-4 -8 -3 -16 1 -19 4 -3 9 4 9 15 2 23 -3 25 -10 4z"/>
<path d="M1533 625 c0 -7 6 -11 14 -8 7 3 13 6 13 8 0 2 -6 5 -13 8 -8 3 -14
-1 -14 -8z"/>
<path d="M1959 638 c-4 -12 -5 -57 0 -53 6 6 10 55 4 55 -1 0 -3 -1 -4 -2z"/>
<path d="M1474 515 c-12 -8 -23 -12 -26 -10 -3 3 -5 -2 -5 -10 0 -19 -1 -19
27 5 12 11 27 17 33 13 6 -3 7 -1 3 5 -9 15 -7 15 -32 -3z"/>
<path d="M1957 515 c-4 -8 -3 -16 1 -19 4 -3 9 4 9 15 2 23 -3 25 -10 4z"/>
<path d="M1209 508 c-5 -18 -6 -38 -1 -34 7 8 12 36 6 36 -2 0 -4 -1 -5 -2z"/>
<path d="M2289 508 c-7 -23 -3 -45 8 -41 9 4 10 9 3 18 -5 6 -7 15 -3 18 3 4
3 7 0 7 -4 0 -7 -1 -8 -2z"/>
<path d="M1440 461 c0 -6 4 -13 10 -16 6 -3 7 1 4 9 -7 18 -14 21 -14 7z"/>
<path d="M2290 439 c0 -5 5 -7 10 -4 6 3 10 8 10 11 0 2 -4 4 -10 4 -5 0 -10
-5 -10 -11z"/>
<path d="M1440 381 c0 -6 4 -13 10 -16 6 -3 7 1 4 9 -7 18 -14 21 -14 7z"/>
<path d="M668 358 c-9 -5 -6 -7 9 -5 12 2 25 6 28 8 8 9 -23 6 -37 -3z"/>
<path d="M2377 337 c-3 -8 1 -14 8 -14 7 0 11 6 8 14 -3 7 -6 13 -8 13 -2 0
-5 -6 -8 -13z"/>
<path d="M1450 300 c0 -5 5 -10 11 -10 5 0 7 5 4 10 -3 6 -8 10 -11 10 -2 0
-4 -4 -4 -10z"/>
<path d="M2036 297 c3 -10 9 -15 12 -12 3 3 0 11 -7 18 -10 9 -11 8 -5 -6z"/>
<path d="M1242 252 c-7 -2 -12 -8 -12 -14 0 -6 6 -6 15 2 12 10 16 9 21 -4 3
-9 11 -16 16 -16 6 0 5 6 -2 15 -15 18 1 20 18 3 9 -9 12 -9 12 3 0 15 -39 21
-68 11z"/>
<path d="M2255 251 c-3 -5 -1 -12 5 -16 5 -3 10 1 10 9 0 18 -6 21 -15 7z"/>
<path d="M470 242 c0 -4 11 -8 25 -8 28 0 24 8 -5 13 -11 2 -20 -1 -20 -5z"/>
<path d="M1335 239 c-4 -6 -4 -13 -1 -16 3 -4 6 -1 6 6 0 7 5 9 12 5 7 -4 8
-3 4 4 -9 15 -13 15 -21 1z"/>
<path d="M2175 239 c-4 -6 -4 -13 -1 -16 3 -4 6 -1 6 6 0 7 5 9 12 5 7 -4 8
-3 4 4 -9 15 -13 15 -21 1z"/>
</g>
</svg>
